<?xml version="1.0" encoding="UTF-8"?>
<svg width="24px" height="24px" viewBox="0 0 24 24" version="1.1" xmlns="http://www.w3.org/2000/svg" xmlns:xlink="http://www.w3.org/1999/xlink">
    <!-- Generator: Sketch 48.2 (47327) - http://www.bohemiancoding.com/sketch -->
    <title>Shape</title>
    <desc>Created with Sketch.</desc>
    <defs></defs>
    <g id="Home" stroke="none" stroke-width="1" fill="none" fill-rule="evenodd" transform="translate(-520.000000, -2069.000000)" opacity="0.5">
        <g id="Search" transform="translate(520.000000, 2066.000000)" fill="#FFFFFF" fill-rule="nonzero">
            <path d="M9.93939896,3.0000095 C13.6946134,2.99482815 17.1312103,5.10941083 18.8191975,8.46386476 C20.5071847,11.8183187 20.1574932,15.8381911 17.9156319,18.8507847 L23.2811237,23.3890457 C23.8679015,23.8897974 24.1240586,24.6774565 23.9440781,25.4275681 C23.7640975,26.1776797 23.1784256,26.7633516 22.4283139,26.9433322 C21.6782023,27.1233128 20.8905433,26.8671557 20.3897916,26.2803779 L15.850432,20.915723 C12.3829853,23.485615 7.65292967,23.5226946 4.14562004,21.0074788 C0.638310417,18.4922629 -0.843767357,14.0002426 0.478127946,9.89169969 C1.80002325,5.78315682 5.62343694,2.99814173 9.93939896,3.0000095 Z M9.93939896,20.7854188 C14.2729035,20.7854188 17.785903,17.2724192 17.785903,12.9389147 C17.785903,8.60541013 14.2729035,5.09241059 9.93939896,5.09241059 C5.60589442,5.09241059 2.09289488,8.60541013 2.09289488,12.9389147 C2.09292377,17.2723988 5.60591484,20.7853664 9.93939896,20.7853664 L9.93939896,20.7854188 Z" id="Shape"></path>
        </g>
    </g>
</svg>