<?xml version="1.0" encoding="utf-8"?>
<!-- Generator: Adobe Illustrator 22.0.1, SVG Export Plug-In . SVG Version: 6.00 Build 0)  -->
<svg version="1.1" id="Ebene_1" xmlns="http://www.w3.org/2000/svg" xmlns:xlink="http://www.w3.org/1999/xlink" x="0px" y="0px"
	 viewBox="0 0 728.2 122.2" style="enable-background:new 0 0 728.2 122.2;" xml:space="preserve">
<style type="text/css">
	.st0{fill:#FFFFFF;}
	.st1{fill:#2FCDE8;}
</style>
<g>
	<path class="st0" d="M19.9,118.6c-7.8-2.4-14.5-5.8-19.9-10.3l7.2-15.4c5.7,4.3,11.6,7.4,17.8,9.4c6.2,2,12.9,3,20.3,3
		c8.1,0,14.4-1.4,18.8-4.3c4.4-2.8,6.6-6.8,6.6-12c0-4.4-2-7.7-6.1-10.1c-4.1-2.3-10.9-4.6-20.3-6.6C29.6,69.2,19,65.1,12.3,60
		c-6.7-5-10-12.4-10-22c0-6.9,1.9-13,5.6-18.4c3.7-5.4,9-9.6,15.8-12.6C30.5,4,38.4,2.5,47.4,2.5c8.2,0,16,1.2,23.4,3.7
		c7.4,2.5,13.4,5.9,18.1,10.2l-7.1,15.4C71.4,23.5,60,19.4,47.4,19.4c-7.5,0-13.5,1.6-17.9,4.7c-4.4,3.1-6.6,7.4-6.6,12.7
		c0,4.6,1.9,8.1,5.8,10.5c3.9,2.4,10.5,4.6,19.9,6.7c9.7,2.3,17.7,4.8,23.8,7.5c6.1,2.7,10.8,6.1,14.1,10.3
		c3.3,4.2,4.9,9.5,4.9,15.8c0,7-1.9,13.1-5.6,18.3c-3.7,5.2-9.1,9.2-16.1,12.1c-7,2.8-15.3,4.3-24.8,4.3
		C36.1,122.2,27.7,121,19.9,118.6z"/>
	<path class="st0" d="M129.8,53.3v37.1c0,9.7,4.5,14.6,13.6,14.6c2.5,0,5.2-0.4,8.2-1.3v16.2c-3.6,1.3-8,2-13.1,2
		c-9.4,0-16.6-2.6-21.6-7.9c-5-5.2-7.5-12.8-7.5-22.6v-38H93.4V37.9h15.9V17.7l20.5-6.9v27.1h22v15.4H129.8z"/>
	<path class="st0" d="M238.1,37.9v82.8h-20v-12.8c-2.6,4.6-6.1,8.1-10.5,10.5c-4.4,2.4-9.4,3.6-15.1,3.6
		c-20.2,0-30.3-11.4-30.3-34.1v-50h20.3v50.2c0,6,1.2,10.4,3.7,13.3c2.5,2.8,6.3,4.3,11.4,4.3c6,0,10.8-2,14.4-5.9
		c3.6-3.9,5.4-9.2,5.4-15.7V37.9H238.1z"/>
	<path class="st0" d="M336.8,0v120.7h-20.2v-13.3c-2.5,4.6-6.1,8.2-10.8,10.7c-4.7,2.6-10.1,3.9-16.1,3.9c-7.1,0-13.4-1.8-19-5.4
		c-5.6-3.6-9.9-8.7-13-15.3c-3.1-6.6-4.7-14.2-4.7-22.7c0-8.5,1.5-16,4.6-22.5c3.1-6.4,7.4-11.5,13-15c5.6-3.6,12-5.3,19.2-5.3
		c5.9,0,11.2,1.2,15.8,3.7c4.6,2.5,8.2,5.9,10.7,10.4V0H336.8z M310.9,98.9c3.8-4.7,5.7-11.4,5.7-20c0-8.6-1.9-15.3-5.6-20
		c-3.7-4.7-9-7.1-15.7-7.1c-6.9,0-12.2,2.3-16,7c-3.8,4.6-5.7,11.2-5.7,19.8c0,8.6,1.9,15.4,5.7,20.2c3.8,4.8,9,7.2,15.8,7.2
		C301.9,105.9,307.2,103.6,310.9,98.9z"/>
	<path class="st0" d="M355.7,120.7V37.9h20.3v82.8H355.7z"/>
	<path class="st0" d="M410.2,116.8c-6.3-3.5-11.2-8.4-14.6-14.8c-3.4-6.4-5.1-13.9-5.1-22.5c0-8.6,1.8-16.2,5.3-22.8
		c3.6-6.6,8.6-11.7,15.1-15.3c6.5-3.7,14-5.5,22.6-5.5c5.9,0,11.6,0.9,17.1,2.8c5.5,1.9,9.9,4.4,13.2,7.7l-5.7,14.4
		c-3.5-2.8-7.2-5-11.2-6.5c-3.9-1.5-7.8-2.2-11.6-2.2c-7.4,0-13.2,2.3-17.4,7c-4.2,4.6-6.2,11.3-6.2,20.1c0,8.7,2,15.4,6.2,20
		c4.1,4.6,9.9,6.9,17.5,6.9c3.8,0,7.7-0.8,11.6-2.3c3.9-1.5,7.7-3.7,11.2-6.6l5.7,14.4c-3.5,3.3-8,5.8-13.6,7.7
		c-5.6,1.9-11.4,2.8-17.5,2.8C424,122,416.5,120.3,410.2,116.8z"/>
	<path class="st0" d="M489.8,116.8c-6.4-3.5-11.3-8.5-14.8-15c-3.4-6.5-5.2-14.1-5.2-22.9c0-8.7,1.7-16.4,5.2-22.9
		c3.4-6.5,8.4-11.5,14.8-15c6.4-3.5,13.8-5.2,22.2-5.2c8.3,0,15.6,1.8,22,5.2c6.3,3.5,11.2,8.5,14.7,15c3.4,6.5,5.2,14.1,5.2,22.9
		c0,8.7-1.7,16.4-5.2,22.9c-3.4,6.5-8.3,11.5-14.7,15c-6.3,3.5-13.7,5.2-22,5.2C503.6,122,496.2,120.3,489.8,116.8z M527.9,99.1
		c3.7-4.5,5.5-11.3,5.5-20.3c0-8.9-1.9-15.6-5.6-20.3c-3.7-4.6-9-7-15.7-7c-6.9,0-12.2,2.3-15.9,7c-3.7,4.6-5.6,11.4-5.6,20.3
		c0,9,1.8,15.7,5.5,20.3c3.7,4.5,8.9,6.8,15.8,6.8C518.9,105.9,524.2,103.7,527.9,99.1z"/>
	<path class="st0" d="M645.4,69.9v50.8h-20.5V70.8c0-6.6-1.3-11.3-3.8-14.3c-2.5-3-6.4-4.5-11.6-4.5c-6.2,0-11.3,2-15.1,6
		c-3.8,4-5.7,9.3-5.7,15.8v46.9h-20.3V61.3c0-8.7-0.4-16.6-1.3-23.5h19.2l1.5,13.6c2.8-5,6.7-8.9,11.6-11.6
		c4.9-2.7,10.4-4.1,16.5-4.1C635.5,35.8,645.4,47.1,645.4,69.9z"/>
	<path class="st0" d="M658.2,111.5l5.7-14.4c8.9,6.6,19,9.8,30.3,9.8c4.9,0,8.7-0.8,11.4-2.5c2.7-1.6,4-3.9,4-6.9
		c0-2.5-0.9-4.5-2.8-6c-1.9-1.5-5-2.8-9.5-3.9l-13.8-3.1c-15.1-3.3-22.6-11-22.6-23.1c0-5,1.4-9.5,4.3-13.4c2.8-3.9,6.8-6.9,12-9.1
		c5.1-2.2,11.1-3.3,17.9-3.3c5.9,0,11.6,0.9,17.1,2.7c5.5,1.8,10.3,4.4,14.4,7.8l-6.1,13.9c-8.3-6.1-16.8-9.2-25.6-9.2
		c-4.7,0-8.4,0.9-11,2.6c-2.6,1.8-3.9,4.2-3.9,7.2c0,2.4,0.8,4.3,2.4,5.7c1.6,1.4,4.3,2.6,8.1,3.6l14.1,3.1c8.2,1.9,14.2,4.7,18,8.6
		c3.8,3.9,5.7,8.9,5.7,15.2c0,7.7-3.1,13.7-9.2,18.2c-6.1,4.5-14.5,6.7-25.1,6.7C679,122,667.1,118.5,658.2,111.5z"/>
</g>
<rect x="354.4" y="0.3" class="st1" width="22.8" height="20.2"/>
</svg>
