<?xml version="1.0" encoding="utf-8"?>
<!-- Generator: Adobe Illustrator 22.0.1, SVG Export Plug-In . SVG Version: 6.00 Build 0)  -->
<svg version="1.1" id="Ebene_1" xmlns="http://www.w3.org/2000/svg" xmlns:xlink="http://www.w3.org/1999/xlink" x="0px" y="0px"
	 viewBox="0 0 64 64" style="enable-background:new 0 0 64 64;" xml:space="preserve">
<style type="text/css">
	.st0{fill:#2FCDE8;}
</style>
<title>sad-face</title>
<desc>Created with Sketch.</desc>
<g id="Home" transform="translate(-688.000000, -2247.000000)">
	<g id="sad-face" transform="translate(688.000000, 2247.000000)">
		<path class="st0" d="M5.1,2C3.8,2,3.4,2.1,3,2.3C2.7,2.5,2.5,2.7,2.3,3C2.1,3.4,2,3.8,2,5.1v25.8c0,0.5,0,0.7,0,0.8
			c0,0.1,0,0.1,0,0.2c0,0.1,0,0.2,0.2,0.7l6.7,26.9c0.3,1.1,0.4,1.5,0.7,1.8c0.2,0.2,0.4,0.4,0.7,0.5c0.4,0.2,0.7,0.2,1.9,0.2h39.7
			c1.2,0,1.5-0.1,1.9-0.2c0.3-0.1,0.5-0.3,0.7-0.5c0.2-0.3,0.4-0.7,0.7-1.8l6.7-26.9c0.1-0.5,0.2-0.6,0.2-0.7c0-0.1,0-0.1,0-0.2
			c0-0.1,0-0.2,0-0.8V5.1c0-1.3-0.1-1.7-0.3-2.1c-0.2-0.3-0.4-0.5-0.7-0.7C60.6,2.1,60.2,2,58.9,2H5.1z M5.1,0H51h7.8
			c1.8,0,2.4,0.2,3.1,0.5c0.7,0.3,1.2,0.9,1.5,1.5C63.8,2.7,64,3.3,64,5.1v25.8c0,0.6,0,0.7,0,0.9c0,0.2,0,0.3-0.1,0.5
			c0,0.2-0.1,0.3-0.2,0.9L57,60c-0.4,1.5-0.6,2-1,2.5c-0.4,0.5-0.9,0.9-1.5,1.1c-0.6,0.3-1.1,0.4-2.7,0.4H12.2
			c-1.5,0-2.1-0.1-2.7-0.4C8.9,63.4,8.4,63,8,62.5c-0.4-0.5-0.6-1-1-2.5L0.3,33.1c-0.1-0.5-0.2-0.7-0.2-0.9c0-0.2,0-0.3-0.1-0.5
			c0-0.2,0-0.3,0-0.9V5.1C0,3.3,0.2,2.7,0.5,2S1.4,0.9,2,0.5S3.3,0,5.1,0z M16.5,13.7c3.2-1.1,7,2.3,6.3,0.2s-4.2-4.1-7.3-3
			s-4.7,5-4,7.1C12.3,20.1,13.4,14.8,16.5,13.7z M48.5,18c3.1,1.2,4.3,6,5.1,4s-0.6-5.6-3.8-6.8C46.6,14,43,16,42.2,18
			C41.4,20.1,45.3,16.8,48.5,18z M18.5,32.2c2.8,0,4.5,2.4,4.5-1S21.3,25,18.5,25S14,27.8,14,31.2S15.7,32.2,18.5,32.2z M45.6,32.2
			c2.8,0,4.4,2.4,4.4-1S48.3,25,45.5,25S41,27.8,41,31.2S42.9,32.2,45.6,32.2z M32,51c2.8,0,5-1.5,5-3.7c0-2.2-2.3-4.3-5-4.3
			s-5,2-5,4.3C27,49.5,29.2,51,32,51z"/>
	</g>
</g>
</svg>
