<?xml version="1.0" encoding="UTF-8"?>
<svg width="186px" height="49px" viewBox="0 0 186 49" version="1.1" xmlns="http://www.w3.org/2000/svg" xmlns:xlink="http://www.w3.org/1999/xlink">
    <title>Logo Negative</title>
    <defs>
        <path d="M5.57097005,1.74789464 C11.7202792,0.582631547 17.8695884,0 24.0188976,0 C30.1682047,0 36.3175118,0.58263115 42.4668189,1.74789345 L42.4668203,1.74788649 C44.4050442,2.11517004 45.921197,3.630923 46.2889918,5.56905004 C47.4548608,11.7127 48.0377953,17.85635 48.0377953,24 C48.0377953,30.1436505 47.4548607,36.2873009 46.2889915,42.4309514 L46.2889877,42.4309506 C45.9211938,44.3690731 44.4050446,45.8848226 42.4668252,46.2521054 C36.317516,47.4173685 30.1682068,48 24.0188976,48 C17.8695905,48 11.7202834,47.4173688 5.57097633,46.2521065 L5.57097501,46.2521135 C3.63275103,45.88483 2.11659823,44.369077 1.74880348,42.43095 C0.582934494,36.2873 0,30.14365 0,24 C0,17.8563495 0.582934583,11.7126991 1.74880375,5.56904863 L1.74880755,5.56904935 C2.11660146,3.63092687 3.63275064,2.11517745 5.57097005,1.74789464 Z" id="path-1"></path>
    </defs>
    <g id="Social-Media-Teaser-Images" stroke="none" stroke-width="1" fill="none" fill-rule="evenodd">
        <g id="studicons-teaser" transform="translate(-547.000000, -25.000000)">
            <g id="Logo-Negative" transform="translate(547.000000, 24.000000)">
                <path d="M63.6307465,33.6409756 C65.8701669,33.6409756 67.6461008,33.1595122 68.958548,32.1965854 C70.2709953,31.2336585 70.9272189,29.8901463 70.9272189,28.1660488 C70.9272189,27.1389268 70.706948,26.2998049 70.2664063,25.6486829 C69.8258646,24.997561 69.160463,24.4519024 68.2702016,24.0117073 C67.3799402,23.5715122 66.1546835,23.1313171 64.5944315,22.691122 C63.2360945,22.2876098 62.2035748,21.9299512 61.4968724,21.6181463 C60.7901701,21.3063415 60.2670268,20.9486829 59.9274425,20.5451707 C59.5878583,20.1416585 59.4180661,19.6189268 59.4180661,18.9769756 C59.4180661,18.0232195 59.7851843,17.3033171 60.5194205,16.8172683 C61.2536567,16.3312195 62.2448756,16.0881951 63.4930772,16.0881951 C64.6494992,16.0881951 65.6131843,16.3449756 66.3841323,16.8585366 C67.1550803,17.3720976 67.595622,18.0232195 67.7057575,18.8119024 C67.7608252,18.9953171 67.8526047,19.132878 67.9810961,19.2245854 C68.1095874,19.3162927 68.2472567,19.3621463 68.3941039,19.3621463 L68.3941039,19.3621463 L69.7707969,19.3621463 C69.936,19.3621463 70.0736693,19.307122 70.1838047,19.1970732 C70.2939402,19.0870244 70.3490079,18.9494634 70.3490079,18.7843902 C70.3122961,18.0140488 70.0277795,17.2482927 69.4954583,16.487122 C68.963137,15.7259512 68.1876,15.0931707 67.1688472,14.5887805 C66.1500945,14.0843902 64.9248378,13.8321951 63.4930772,13.8321951 C62.1163843,13.8321951 60.9232504,14.056878 59.9136756,14.5062439 C58.9041008,14.9556098 58.1331528,15.5700488 57.6008315,16.349561 C57.0685102,17.1290732 56.8023496,18.0140488 56.8023496,19.0044878 C56.8023496,20.0316098 57.0134425,20.8799024 57.4356283,21.5493659 C57.8578142,22.2188293 58.4865039,22.7828293 59.3216976,23.2413659 C60.1568913,23.6999024 61.2811906,24.1309268 62.6945953,24.534439 C64.1814236,24.9746341 65.2965449,25.3460488 66.0399591,25.6486829 C66.7833732,25.9513171 67.3432283,26.3043902 67.7195244,26.7079024 C68.0958205,27.1114146 68.2839685,27.6249756 68.2839685,28.2485854 C68.2839685,29.2206829 67.8984945,29.9818537 67.1275465,30.5320976 C66.3565984,31.0823415 65.1909984,31.3574634 63.6307465,31.3574634 C62.1806299,31.3574634 61.0655087,31.0777561 60.2853827,30.5183415 C59.5052567,29.9589268 59.0325921,29.2940488 58.867389,28.5237073 C58.7388976,28.156878 58.5094488,27.9734634 58.1790425,27.9734634 L58.1790425,27.9734634 L56.8298835,27.9734634 C56.6646803,27.9734634 56.527011,28.0284878 56.4168756,28.1385366 C56.3067402,28.2485854 56.2516724,28.3769756 56.2516724,28.5237073 C56.2883843,29.422439 56.5958457,30.261561 57.1740567,31.0410732 C57.7522677,31.8205854 58.5966394,32.4487805 59.7071717,32.9256585 C60.8177039,33.4025366 62.1255622,33.6409756 63.6307465,33.6409756 Z M85.7955024,38.5931707 C85.9790614,38.5931707 86.1304976,38.533561 86.249811,38.4143415 C86.3691244,38.295122 86.4287811,38.1438049 86.4287811,37.9603902 L86.4287811,37.9603902 L86.4287811,19.6922927 C86.4287811,19.508878 86.3691244,19.357561 86.249811,19.2383415 C86.1304976,19.119122 85.9790614,19.0595122 85.7955024,19.0595122 L85.7955024,19.0595122 L84.6115465,19.0595122 C84.4279874,19.0595122 84.2765512,19.119122 84.1572378,19.2383415 C84.0379244,19.357561 83.9782677,19.508878 83.9782677,19.6922927 L83.9782677,19.6922927 L83.9782677,20.9028293 C82.950337,19.4905366 81.4451528,18.7843902 79.462715,18.7843902 C77.5353449,18.7843902 76.0898173,19.3942439 75.1261323,20.6139512 C74.1624472,21.8336585 73.6438929,23.3880976 73.5704693,25.2772683 L73.5704693,25.2772683 L73.5429354,26.2126829 L73.5704693,27.1480976 C73.625537,29.0189268 74.1395024,30.5687805 75.1123654,31.7976585 C76.0852283,33.0265366 77.5353449,33.6409756 79.462715,33.6409756 C81.390085,33.6409756 82.8769134,32.944 83.9232,31.5500488 L83.9232,31.5500488 L83.9232,37.9603902 C83.9232,38.1621463 83.9828567,38.3180488 84.1021701,38.4280976 C84.2214835,38.5381463 84.3729197,38.5931707 84.5564787,38.5931707 L84.5564787,38.5931707 L85.7955024,38.5931707 Z M79.9858583,31.4950244 C77.3793197,31.4950244 76.0760504,29.7342439 76.0760504,26.2126829 L76.0760504,26.2126829 L76.1035843,25.4148293 C76.158652,24.0759024 76.4890583,22.9937561 77.0948031,22.1683902 C77.700548,21.3430244 78.6642331,20.9303415 79.9858583,20.9303415 C81.2707717,20.9303415 82.2344567,21.3521951 82.8769134,22.1959024 C83.5193701,23.0396098 83.8681323,24.0483902 83.9232,25.2222439 C83.9415559,25.424 83.9507339,25.7816585 83.9507339,26.2952195 C83.9507339,26.8087805 83.9415559,27.166439 83.9232,27.3681951 C83.8864882,28.4870244 83.533137,29.4545366 82.8631465,30.2707317 C82.1931559,31.0869268 81.2340598,31.4950244 79.9858583,31.4950244 Z M95.9004283,33.6409756 C97.0017827,33.6409756 97.9104,33.4621463 98.6262803,33.1044878 C99.3421606,32.7468293 99.9662614,32.2103415 100.498583,31.4950244 L100.498583,31.4950244 L100.498583,32.7330732 C100.498583,32.9164878 100.558239,33.0678049 100.677553,33.1870244 C100.796866,33.3062439 100.948302,33.3658537 101.131861,33.3658537 L101.131861,33.3658537 L102.315817,33.3658537 C102.499376,33.3658537 102.650813,33.3062439 102.770126,33.1870244 C102.889439,33.0678049 102.949096,32.9164878 102.949096,32.7330732 L102.949096,32.7330732 L102.949096,19.6922927 C102.949096,19.508878 102.889439,19.357561 102.770126,19.2383415 C102.650813,19.119122 102.499376,19.0595122 102.315817,19.0595122 L102.315817,19.0595122 L101.04926,19.0595122 C100.865701,19.0595122 100.714265,19.119122 100.594951,19.2383415 C100.475638,19.357561 100.415981,19.508878 100.415981,19.6922927 L100.415981,19.6922927 L100.415981,27.3131707 C100.415981,28.6154146 100.071808,29.6379512 99.3834614,30.3807805 C98.695115,31.1236098 97.7635528,31.4950244 96.5887748,31.4950244 C94.1657953,31.4950244 92.9543055,30.1010732 92.9543055,27.3131707 L92.9543055,27.3131707 L92.9543055,19.6922927 C92.9543055,19.508878 92.8946488,19.357561 92.7753354,19.2383415 C92.656022,19.119122 92.5045858,19.0595122 92.3210268,19.0595122 L92.3210268,19.0595122 L91.0544693,19.0595122 C90.8709102,19.0595122 90.719474,19.119122 90.6001606,19.2383415 C90.4808472,19.357561 90.4211906,19.508878 90.4211906,19.6922927 L90.4211906,19.6922927 L90.4211906,27.4507317 C90.4211906,29.321561 90.8984441,30.8209756 91.8529512,31.9489756 C92.8074583,33.0769756 94.1566173,33.6409756 95.9004283,33.6409756 Z M109.11668,16.3633171 C109.300239,16.3633171 109.456265,16.3037073 109.584756,16.1844878 C109.713247,16.0652683 109.777493,15.9139512 109.777493,15.7305366 L109.777493,15.7305366 L109.777493,14.2999024 C109.777493,14.1164878 109.713247,13.9605854 109.584756,13.8321951 C109.456265,13.7038049 109.300239,13.6396098 109.11668,13.6396098 L109.11668,13.6396098 L107.492183,13.6396098 C107.308624,13.6396098 107.157187,13.7038049 107.037874,13.8321951 C106.918561,13.9605854 106.858904,14.1164878 106.858904,14.2999024 L106.858904,14.2999024 L106.858904,15.7305366 C106.858904,15.9139512 106.918561,16.0652683 107.037874,16.1844878 C107.157187,16.3037073 107.308624,16.3633171 107.492183,16.3633171 L107.492183,16.3633171 L109.11668,16.3633171 Z M108.923943,33.3658537 C109.107502,33.3658537 109.258939,33.3062439 109.378252,33.1870244 C109.497565,33.0678049 109.557222,32.9164878 109.557222,32.7330732 L109.557222,32.7330732 L109.557222,19.6922927 C109.557222,19.508878 109.497565,19.357561 109.378252,19.2383415 C109.258939,19.119122 109.107502,19.0595122 108.923943,19.0595122 L108.923943,19.0595122 L107.712454,19.0595122 C107.528894,19.0595122 107.377458,19.119122 107.258145,19.2383415 C107.138831,19.357561 107.079175,19.508878 107.079175,19.6922927 L107.079175,19.6922927 L107.079175,32.7330732 C107.079175,32.9164878 107.138831,33.0678049 107.258145,33.1870244 C107.377458,33.3062439 107.528894,33.3658537 107.712454,33.3658537 L107.712454,33.3658537 L108.923943,33.3658537 Z M115.559603,33.3658537 C115.743162,33.3658537 115.899187,33.3062439 116.027679,33.1870244 C116.15617,33.0678049 116.220416,32.9164878 116.220416,32.7330732 L116.220416,32.7330732 L116.220416,24.6169756 C116.220416,23.6081951 116.509521,22.8103415 117.087732,22.2234146 C117.665943,21.6364878 118.459836,21.3430244 119.469411,21.3430244 L119.469411,21.3430244 L121.038841,21.3430244 C121.240756,21.3430244 121.396781,21.2834146 121.506917,21.1641951 C121.617052,21.0449756 121.67212,20.8936585 121.67212,20.7102439 L121.67212,20.7102439 L121.67212,19.6922927 C121.67212,19.4905366 121.617052,19.3346341 121.506917,19.2245854 C121.396781,19.1145366 121.240756,19.0595122 121.038841,19.0595122 L121.038841,19.0595122 L119.96502,19.0595122 C118.166142,19.0595122 116.890406,19.683122 116.137814,20.9303415 L116.137814,20.9303415 L116.137814,19.7198049 C116.137814,19.5180488 116.078157,19.357561 115.958844,19.2383415 C115.839531,19.119122 115.678917,19.0595122 115.477002,19.0595122 L115.477002,19.0595122 L114.32058,19.0595122 C114.13702,19.0595122 113.985584,19.1237073 113.866271,19.2520976 C113.746957,19.3804878 113.687301,19.5363902 113.687301,19.7198049 L113.687301,19.7198049 L113.687301,32.7330732 C113.687301,32.9164878 113.746957,33.0678049 113.866271,33.1870244 C113.985584,33.3062439 114.13702,33.3658537 114.32058,33.3658537 L114.32058,33.3658537 L115.559603,33.3658537 Z M129.767074,33.6409756 C131.088699,33.6409756 132.20382,33.4025366 133.112438,32.9256585 C134.021055,32.4487805 134.700224,31.8618537 135.149943,31.164878 C135.599663,30.4679024 135.842879,29.7800976 135.879591,29.1014634 C135.897946,28.9363902 135.83829,28.7896585 135.70062,28.6612683 C135.562951,28.532878 135.411515,28.4686829 135.246312,28.4686829 L135.246312,28.4686829 L134.034822,28.4686829 C133.851263,28.4686829 133.713594,28.5099512 133.621814,28.5924878 C133.530035,28.6750244 133.438255,28.8263415 133.346476,29.046439 C133.016069,29.9451707 132.56635,30.5825366 131.997317,30.9585366 C131.428283,31.3345366 130.694047,31.5225366 129.794608,31.5225366 C128.638186,31.5225366 127.720391,31.164878 127.041222,30.449561 C126.362054,29.7342439 125.994935,28.6429268 125.939868,27.1756098 L125.939868,27.1756098 L125.912334,26.2126829 L125.939868,25.2497561 C125.994935,23.782439 126.362054,22.691122 127.041222,21.9758049 C127.720391,21.2604878 128.638186,20.9028293 129.794608,20.9028293 C130.675691,20.9028293 131.405339,21.0908293 131.98355,21.4668293 C132.561761,21.8428293 133.016069,22.4801951 133.346476,23.3789268 C133.438255,23.5990244 133.530035,23.7503415 133.621814,23.832878 C133.713594,23.9154146 133.851263,23.9566829 134.034822,23.9566829 L134.034822,23.9566829 L135.246312,23.9566829 C135.411515,23.9566829 135.562951,23.8924878 135.70062,23.7640976 C135.83829,23.6357073 135.897946,23.4889756 135.879591,23.3239024 C135.842879,22.6269268 135.599663,21.9299512 135.149943,21.2329756 C134.700224,20.536 134.021055,19.9536585 133.112438,19.4859512 C132.20382,19.0182439 131.088699,18.7843902 129.767074,18.7843902 C127.802992,18.7843902 126.270274,19.3392195 125.16892,20.448878 C124.067565,21.5585366 123.489354,23.1129756 123.434287,25.1121951 L123.434287,25.1121951 L123.406753,26.2126829 L123.434287,27.3131707 C123.489354,29.3123902 124.067565,30.8668293 125.16892,31.9764878 C126.270274,33.0861463 127.802992,33.6409756 129.767074,33.6409756 Z M144.525222,33.6409756 C145.626576,33.6409756 146.535194,33.4621463 147.251074,33.1044878 C147.966954,32.7468293 148.591055,32.2103415 149.123376,31.4950244 L149.123376,31.4950244 L149.123376,32.7330732 C149.123376,32.9164878 149.183033,33.0678049 149.302346,33.1870244 C149.42166,33.3062439 149.573096,33.3658537 149.756655,33.3658537 L149.756655,33.3658537 L150.940611,33.3658537 C151.12417,33.3658537 151.275606,33.3062439 151.39492,33.1870244 C151.514233,33.0678049 151.57389,32.9164878 151.57389,32.7330732 L151.57389,32.7330732 L151.57389,19.6922927 C151.57389,19.508878 151.514233,19.357561 151.39492,19.2383415 C151.275606,19.119122 151.12417,19.0595122 150.940611,19.0595122 L150.940611,19.0595122 L149.674054,19.0595122 C149.490494,19.0595122 149.339058,19.119122 149.219745,19.2383415 C149.100431,19.357561 149.040775,19.508878 149.040775,19.6922927 L149.040775,19.6922927 L149.040775,27.3131707 C149.040775,28.6154146 148.696602,29.6379512 148.008255,30.3807805 C147.319909,31.1236098 146.388346,31.4950244 145.213569,31.4950244 C142.790589,31.4950244 141.579099,30.1010732 141.579099,27.3131707 L141.579099,27.3131707 L141.579099,19.6922927 C141.579099,19.508878 141.519443,19.357561 141.400129,19.2383415 C141.280816,19.119122 141.12938,19.0595122 140.94582,19.0595122 L140.94582,19.0595122 L139.679263,19.0595122 C139.495704,19.0595122 139.344268,19.119122 139.224954,19.2383415 C139.105641,19.357561 139.045984,19.508878 139.045984,19.6922927 L139.045984,19.6922927 L139.045984,27.4507317 C139.045984,29.321561 139.523238,30.8209756 140.477745,31.9489756 C141.432252,33.0769756 142.781411,33.6409756 144.525222,33.6409756 Z M157.576271,33.3658537 C157.75983,33.3658537 157.911266,33.3062439 158.03058,33.1870244 C158.149893,33.0678049 158.20955,32.9164878 158.20955,32.7330732 L158.20955,32.7330732 L158.20955,14.4649756 C158.20955,14.281561 158.149893,14.1302439 158.03058,14.0110244 C157.911266,13.8918049 157.75983,13.8321951 157.576271,13.8321951 L157.576271,13.8321951 L156.364781,13.8321951 C156.181222,13.8321951 156.029786,13.8872195 155.910472,13.9972683 C155.791159,14.1073171 155.731502,14.2632195 155.731502,14.4649756 L155.731502,14.4649756 L155.731502,32.7330732 C155.731502,32.9164878 155.791159,33.0678049 155.910472,33.1870244 C156.029786,33.3062439 156.181222,33.3658537 156.364781,33.3658537 L156.364781,33.3658537 L157.576271,33.3658537 Z M166.304504,33.6409756 C167.515994,33.6409756 168.507213,33.4392195 169.278161,33.0357073 C170.049109,32.6321951 170.636498,32.1278049 171.040328,31.5225366 L171.040328,31.5225366 L171.040328,32.7330732 C171.040328,32.9164878 171.095395,33.0678049 171.205531,33.1870244 C171.315666,33.3062439 171.462513,33.3658537 171.646072,33.3658537 L171.646072,33.3658537 L172.857562,33.3658537 C173.041121,33.3658537 173.192557,33.3062439 173.311871,33.1870244 C173.431184,33.0678049 173.490841,32.9164878 173.490841,32.7330732 L173.490841,32.7330732 L173.490841,23.7916098 C173.490841,22.3609756 173.04571,21.1687805 172.155449,20.2150244 C171.265187,19.2612683 169.792126,18.7843902 167.736265,18.7843902 C166.543131,18.7843902 165.533556,18.9907317 164.70754,19.4034146 C163.881524,19.8160976 163.271191,20.3021463 162.876539,20.861561 C162.481887,21.4209756 162.284561,21.9116098 162.284561,22.3334634 C162.284561,22.4985366 162.344217,22.6406829 162.463531,22.7599024 C162.582844,22.879122 162.725102,22.9387317 162.890306,22.9387317 L162.890306,22.9387317 L163.964126,22.9387317 C164.110973,22.9387317 164.225698,22.9066341 164.308299,22.842439 C164.390901,22.7782439 164.468913,22.654439 164.542337,22.4710244 C164.780964,22.0124878 165.15726,21.613561 165.671225,21.2742439 C166.185191,20.9349268 166.864359,20.7652683 167.708731,20.7652683 C169.893083,20.7652683 170.98526,21.7098537 170.98526,23.5990244 L170.98526,23.5990244 L170.98526,24.396878 L166.855181,24.9746341 C165.148082,25.2314146 163.798923,25.7449756 162.807704,26.5153171 C161.816485,27.2856585 161.320876,28.2760976 161.320876,29.4866341 C161.320876,30.2569756 161.545735,30.9585366 161.995455,31.5913171 C162.445175,32.2240976 163.05092,32.7239024 163.81269,33.0907317 C164.57446,33.457561 165.405065,33.6409756 166.304504,33.6409756 Z M166.855181,31.6325854 C166.010809,31.6325854 165.281162,31.4308293 164.666239,31.0273171 C164.051317,30.6238049 163.743855,30.0460488 163.743855,29.2940488 C163.743855,28.6337561 164.083439,28.0835122 164.762608,27.6433171 C165.441776,27.203122 166.442173,26.8913171 167.763798,26.7079024 L167.763798,26.7079024 L170.98526,26.2401951 L170.98526,27.0105366 C170.98526,28.5145366 170.599786,29.660878 169.828838,30.449561 C169.05789,31.2382439 168.066671,31.6325854 166.855181,31.6325854 Z M179.355553,33.3658537 C179.539112,33.3658537 179.695137,33.3062439 179.823628,33.1870244 C179.95212,33.0678049 180.016365,32.9164878 180.016365,32.7330732 L180.016365,32.7330732 L180.016365,24.6169756 C180.016365,23.6081951 180.305471,22.8103415 180.883682,22.2234146 C181.461893,21.6364878 182.255786,21.3430244 183.265361,21.3430244 L183.265361,21.3430244 L184.834791,21.3430244 C185.036706,21.3430244 185.192731,21.2834146 185.302866,21.1641951 C185.413002,21.0449756 185.468069,20.8936585 185.468069,20.7102439 L185.468069,20.7102439 L185.468069,19.6922927 C185.468069,19.4905366 185.413002,19.3346341 185.302866,19.2245854 C185.192731,19.1145366 185.036706,19.0595122 184.834791,19.0595122 L184.834791,19.0595122 L183.76097,19.0595122 C181.962091,19.0595122 180.686356,19.683122 179.933764,20.9303415 L179.933764,20.9303415 L179.933764,19.7198049 C179.933764,19.5180488 179.874107,19.357561 179.754794,19.2383415 C179.63548,19.119122 179.474866,19.0595122 179.272951,19.0595122 L179.272951,19.0595122 L178.116529,19.0595122 C177.93297,19.0595122 177.781534,19.1237073 177.66222,19.2520976 C177.542907,19.3804878 177.48325,19.5363902 177.48325,19.7198049 L177.48325,19.7198049 L177.48325,32.7330732 C177.48325,32.9164878 177.542907,33.0678049 177.66222,33.1870244 C177.781534,33.3062439 177.93297,33.3658537 178.116529,33.3658537 L178.116529,33.3658537 L179.355553,33.3658537 Z" id="Squircular" fill="#26202E" fill-rule="nonzero"></path>
                <g id="Group-2" transform="translate(0.000000, 1.170732)">
                    <mask id="mask-2" fill="white">
                        <use xlink:href="#path-1"></use>
                    </mask>
                    <use id="Mask" fill="#431880" xlink:href="#path-1"></use>
                    <path d="M-7.33487065,10.6187756 C-0.691488573,9.39325041 5.95189351,8.7804878 12.5952756,8.7804878 C18.9926065,8.7804878 25.3899375,9.34870115 31.7872684,10.4851278 L32.525422,10.6187758 C35.0089587,11.0769214 36.952152,13.0185859 37.4106584,15.5001686 C38.6371486,22.1383238 39.2503937,28.776479 39.2503937,35.4146341 C39.2503937,41.8069318 38.6817329,48.1992294 37.5444114,54.5915271 L37.4106583,55.3290998 C36.9521518,57.8106825 35.0089585,59.752347 32.5254218,60.2104927 C25.8820398,61.4360179 19.2386577,62.0487805 12.5952756,62.0487805 C6.19794465,62.0487805 -0.199386291,61.4805671 -6.59671723,60.3441404 L-7.33487078,60.2104925 C-9.81840749,59.7523468 -11.7616008,57.8106824 -12.2201072,55.3290997 C-13.4465974,48.6909445 -14.0598425,42.0527893 -14.0598425,35.4146341 C-14.0598425,29.0223365 -13.4911818,22.6300389 -12.3538602,16.2377412 L-12.2201071,15.5001685 C-11.7616007,13.0185857 -9.81840736,11.0769213 -7.33487065,10.6187756 Z" id="Rectangle" stroke="#C7A7F1" stroke-width="1.90491939" fill-opacity="0.2" fill="#C7A7F1" mask="url(#mask-2)"></path>
                    <g id="Group" mask="url(#mask-2)" fill="#431880" stroke="#C7A7F1" stroke-width="1.90491939">
                        <g transform="translate(9.666142, 5.853659)" id="Rectangle">
                            <path d="M2.73674386,-0.951310572 C4.15220689,-0.952774376 5.05816981,-0.578330117 5.67757633,0.0405890648 C6.28440294,0.646938225 6.64779484,1.52856061 6.67056724,2.73454824 C6.6720331,4.1494833 6.29720796,5.05502499 5.67757633,5.6741691 C5.07097928,6.28028889 4.18897905,6.64332316 2.98251411,6.66606874 C1.56705108,6.66753254 0.66108816,6.29308828 0.0416816399,5.6741691 C-0.565144961,5.06781994 -0.928536866,4.18619756 -0.951309267,2.98020992 C-0.952775129,1.56527487 -0.577949986,0.659733175 0.0416816399,0.0405890648 C0.648278693,-0.565530729 1.53027892,-0.928564992 2.73674386,-0.951310572 Z"></path>
                            <path d="M18.9413081,0.00114912217 C20.3567712,-0.000314682022 21.2627341,0.374129577 21.8821406,0.993048759 C22.4889672,1.59939792 22.8523591,2.4810203 22.8751315,3.68700794 C22.8765974,5.10194299 22.5017722,6.00748468 21.8821406,6.62662879 C21.2755435,7.23274859 20.3935433,7.59578285 19.1870784,7.61852843 C17.7716153,7.61999223 16.8656524,7.24554798 16.2462459,6.62662879 C15.6394193,6.02027963 15.2760274,5.13865725 15.253255,3.93266962 C15.2517891,2.51773456 15.6266143,1.61219287 16.2462459,0.993048759 C16.852843,0.386928965 17.7348432,0.0238947017 18.9413081,0.00114912217 Z"></path>
                            <path d="M28.4734047,10.4782058 C29.8888678,10.476742 30.7948307,10.8511862 31.4142372,11.4701054 C32.0210638,12.0764546 32.3844557,12.9580769 32.4072281,14.1640646 C32.408694,15.5789996 32.0338688,16.4845413 31.4142372,17.1036854 C30.8076402,17.7098052 29.9256399,18.0728395 28.719175,18.0955851 C27.303712,18.0970489 26.397749,17.7226046 25.7783425,17.1036854 C25.1715159,16.4973363 24.808124,15.6157139 24.7853516,14.4097263 C24.7838858,12.9947912 25.1587109,12.0892495 25.7783425,11.4701054 C26.3849396,10.8639856 27.2669398,10.5009513 28.4734047,10.4782058 Z"></path>
                            <path d="M29.4266144,25.7175609 C30.8420774,25.7160971 31.7480404,26.0905413 32.3674469,26.7094605 C32.9742735,27.3158097 33.3376654,28.197432 33.3604378,29.4034197 C33.3619036,30.8183547 32.9870785,31.7238964 32.3674469,32.3430405 C31.7608498,32.9491603 30.8788496,33.3121946 29.6723847,33.3349402 C28.2569216,33.336404 27.3509587,32.9619597 26.7315522,32.3430405 C26.1247256,31.7366914 25.7613337,30.855069 25.7385613,29.6490814 C25.7370954,28.2341463 26.1119206,27.3286046 26.7315522,26.7094605 C27.3381492,26.1033407 28.2201495,25.7403064 29.4266144,25.7175609 Z"></path>
                        </g>
                    </g>
                </g>
            </g>
        </g>
    </g>
</svg>