<?xml version="1.0" encoding="utf-8"?>
<!-- Generator: Adobe Illustrator 22.0.1, SVG Export Plug-In . SVG Version: 6.00 Build 0)  -->
<svg version="1.1" id="Ebene_1" xmlns="http://www.w3.org/2000/svg" xmlns:xlink="http://www.w3.org/1999/xlink" x="0px" y="0px"
	 viewBox="0 0 762.4 125.9" style="enable-background:new 0 0 762.4 125.9;" xml:space="preserve">
<style type="text/css">
	.st0{fill:#FFFFFF;}
	.st1{fill:#F80051;}
</style>
<g>
	<path class="st0" d="M24.2,38.7c0-10.4,8.4-16.1,22-16.1c14.9,0,22.6,9.2,22.8,20.7h19.6C88.1,21.5,73.7,4.8,46.3,4.8
		c-26,0-41.7,15.9-41.7,34.4c0,46.5,65.1,24.2,65.1,52.6c0,10.5-9.2,16.3-25.1,16.2c-15.7,0-24.1-8.3-24.9-20.8H0
		c0.6,19,12.6,38.7,43.6,38.7c27.8,0,46.2-13.7,46.2-34.9C89.8,44.4,24.2,64.3,24.2,38.7z"/>
	<polygon class="st0" points="131.8,16.4 112.3,16.4 112.3,38.5 99.3,38.5 99.3,54.1 112.3,54.1 112.3,123.6 131.8,123.6 
		131.8,54.1 146.1,54.1 146.1,38.5 131.8,38.5 	"/>
	<path class="st0" d="M213.3,88.5L213.3,88.5c0,13.3-6.4,19.8-18.2,19.8c-11.8,0-18-6.5-18-19.8v-50h-19.5v49c0,21.8,10,38,37.6,38
		c27.6,0,37.6-16.2,37.6-38v-49h-19.5V88.5z"/>
	<path class="st0" d="M311.4,49.8c-4.7-7.2-13.9-13.1-27.2-13.1c-25.1,0-39.4,20.2-39.4,44.6c0,24.2,14.3,44.4,39.4,44.4
		c13.3,0,23.3-5.2,28.7-14.1v12.1h18V0.7h-19.5V49.8z M288.3,108.4c-14.7,0-23.9-11.9-23.9-27.2c0-15.6,9.1-27.4,23.9-27.4
		c14.9,0,23.9,11.8,23.9,27.4C312.2,96.4,303.2,108.4,288.3,108.4z"/>
	<path class="st0" d="M358.8,0c-7.2,0-12.3,5.1-12.3,12.3c0,7,5.1,12,12.3,12c7,0,12.1-4.9,12.1-12C370.9,5.1,365.9,0,358.8,0z"/>
	<rect x="348.9" y="38.5" class="st0" width="19.5" height="85.1"/>
	<rect x="742.9" y="106" class="st1" width="19.5" height="19.5"/>
	<path class="st0" d="M518.6,36.6c-27,0-44.1,20.7-44.1,44.6c0,23.9,17,44.4,44.1,44.4c27.2,0,44.3-20.5,44.3-44.4
		C562.9,57.3,545.8,36.6,518.6,36.6z M518.6,108.4c-14.1,0-24.6-10.8-24.6-27.2c0-16.6,10.5-27.4,24.6-27.4
		c14.3,0,24.8,10.8,24.8,27.4C543.4,97.6,532.9,108.4,518.6,108.4z"/>
	<path class="st0" d="M424.9,108.4c-14.1,0-24.6-10.8-24.6-27.2c0-16.6,10.5-27.4,24.6-27.4c7.3,0,13.6,2.8,18,7.8H465
		c-6.6-14.6-20.8-25-40.1-25c-27,0-44.1,20.7-44.1,44.6c0,23.9,17,44.4,44.1,44.4c19.4,0,33.6-10.4,40.2-25H443
		C438.5,105.6,432.2,108.4,424.9,108.4z"/>
	<path class="st0" d="M610.9,38.5c-7.2,0-13.2,1.1-18.1,3.1v-3.1h-19.5v87h19.5v-50c0-13.3,6.4-19.8,18.2-19.8s18,6.5,18,19.8v50
		h19.5v-49C648.5,54.7,638.5,38.5,610.9,38.5z"/>
	<path class="st0" d="M699,71.5c-9.8-2.2-15.8-3.8-15.8-9.1c0-7.6,8-8.7,12.8-8.7c8.2,0,13.2,4.5,13.3,11.9l0,2.5H728l-0.1-2.6
		C727.5,47.8,715,36.4,696,36.4c-20.6,0-31.5,13.3-31.5,26.4c0,20.1,15.9,23.6,28.7,26.3c10.2,2.2,16.5,3.9,16.5,10.2
		c0,2.7-1.1,4.8-3.4,6.2c-2.5,1.6-6.4,2.5-11.3,2.5c0,0-0.3,0-0.3,0c-9,0-14.3-4.3-14.8-12.1l-0.2-2.3h-18.6l0.1,2.6
		c0.4,14.2,9.3,29.3,32.8,29.3c20.7,0,34.6-10.7,34.6-26.7C728.8,78.2,711.5,74.3,699,71.5z"/>
</g>
</svg>
